# Blender 4.2.1 LTS
# www.blender.org
mtllib Table.mtl
o uploads_files_821916_Table
v -1.524444 1.044805 1.105018
v -1.373663 -0.503259 1.078609
v -1.351912 1.044805 1.105018
v -1.347446 1.044805 1.100552
v -1.373663 -0.503259 0.948450
v -1.347446 1.044805 0.926507
v -1.351912 1.044805 0.922040
v -1.502694 -0.503259 0.948452
v -1.524444 1.044805 0.922040
v -1.528911 1.044805 0.926507
v -1.502694 -0.503259 1.078609
v -1.528911 1.044805 1.100552
v 1.818659 1.044803 1.105165
v 1.667733 -0.503343 1.078690
v 1.796928 -0.503343 1.078690
v 1.641453 1.044803 1.100613
v 1.667733 -0.503343 0.948369
v 1.646004 1.044803 0.921894
v 1.796928 -0.503343 0.948369
v 1.823209 1.044803 0.926446
v 1.823209 1.044803 1.100613
v 1.646004 1.044803 1.105165
v 1.641453 1.044803 0.926446
v 1.818659 1.044803 0.921894
v -1.524512 1.044801 -0.687463
v -1.373570 -0.503301 -0.660980
v -1.502785 -0.503301 -0.660980
v -1.347282 1.044801 -0.682901
v -1.373570 -0.503301 -0.530639
v -1.351843 1.044801 -0.504156
v -1.502785 -0.503301 -0.530639
v -1.529075 1.044801 -0.508718
v -1.529075 1.044801 -0.682901
v -1.351843 1.044801 -0.687463
v -1.347282 1.044801 -0.508718
v -1.524512 1.044801 -0.504156
v 1.818665 1.044801 -0.687463
v 1.667723 -0.503301 -0.660980
v 1.645997 1.044801 -0.687463
v 1.641435 1.044801 -0.682901
v 1.667723 -0.503301 -0.530639
v 1.641435 1.044801 -0.508718
v 1.645997 1.044801 -0.504156
v 1.796938 -0.503301 -0.530639
v 1.818665 1.044801 -0.504156
v 1.823228 1.044801 -0.508718
v 1.796938 -0.503301 -0.660980
v 1.823228 1.044801 -0.682901
v -1.392572 1.045942 0.929912
v -1.392572 0.851198 -0.519844
v -1.392572 1.045942 -0.519844
v -1.402028 0.841742 0.929912
v -1.483696 0.841742 -0.519844
v -1.402028 0.841742 -0.519844
v -1.493152 0.851198 0.929912
v -1.493152 1.045942 -0.519844
v -1.493152 0.851198 -0.519844
v -1.392572 0.851198 0.929912
v -1.483696 0.841742 0.929912
v 1.686725 1.045942 0.929912
v 1.686725 0.851198 -0.519844
v 1.686725 0.851198 0.929912
v 1.696181 0.841742 0.929912
v 1.777849 0.841742 -0.519844
v 1.777849 0.841742 0.929912
v 1.787305 0.851198 0.929912
v 1.787305 1.045942 -0.519844
v 1.787305 1.045942 0.929912
v 1.696181 0.841742 -0.519844
v 1.787305 0.851198 -0.519844
v -1.361202 0.841362 1.057881
v 1.655355 0.841362 0.969180
v 1.655355 0.841362 1.057881
v -1.361202 0.847682 0.962858
v 1.655355 1.044092 0.962858
v 1.655355 0.847682 0.962858
v 1.655355 1.044092 1.064201
v -1.361202 0.847682 1.064201
v 1.655355 0.847682 1.064201
v -1.361202 0.841361 -0.640161
v 1.655355 0.841362 -0.551460
v -1.361202 0.841362 -0.551460
v -1.361202 0.847682 -0.545138
v 1.655355 1.044092 -0.545138
v -1.361202 1.044092 -0.545138
v 1.655355 1.044092 -0.646481
v -1.361202 0.847682 -0.646481
v -1.361202 1.044092 -0.646481
v 1.655355 0.847682 -0.646481
v -1.650180 1.124499 1.091450
v -1.624387 1.124499 1.169744
v -1.650180 1.124498 -0.673730
v 1.840413 1.119440 1.200505
v 1.840247 1.124499 1.195537
v -1.546094 1.124499 1.195537
v 1.949301 1.119440 -0.673897
v 1.944334 1.124498 -0.673730
v 1.944334 1.124499 1.091450
v -1.655148 1.119440 1.091617
v -1.546260 1.119440 -0.782785
v -1.546094 1.124498 -0.777817
v 1.840247 1.124498 -0.777817
v -1.546260 1.119440 1.200505
v -1.571063 1.124499 1.193871
v 1.949301 1.119440 1.091617
v 1.942668 1.124499 1.116420
v -1.655148 1.119440 -0.673897
v -1.648515 1.124498 -0.698700
v 1.840413 1.119440 -0.782785
v 1.865216 1.124498 -0.776151
v -1.653447 1.119440 1.117137
v -1.648515 1.124499 1.116420
v -1.644088 1.119440 1.148619
v -1.639583 1.124499 1.146523
v -1.627929 1.119442 1.173285
v -1.603262 1.119440 1.189444
v -1.601167 1.124499 1.184940
v -1.571778 1.119440 1.198803
v 1.865934 1.119440 1.198803
v 1.865216 1.124499 1.193871
v 1.897416 1.119440 1.189444
v 1.895320 1.124499 1.184940
v 1.922082 1.119442 1.173285
v 1.918376 1.124499 1.169579
v 1.938241 1.119440 1.148619
v 1.933737 1.124499 1.146523
v 1.947600 1.119440 1.117137
v -1.571778 1.119440 -0.781083
v -1.571063 1.124498 -0.776151
v -1.603262 1.119440 -0.771724
v -1.601167 1.124498 -0.767220
v -1.627929 1.119442 -0.755565
v -1.624387 1.124498 -0.752024
v -1.644088 1.119442 -0.730899
v -1.639583 1.124498 -0.728803
v -1.653447 1.119440 -0.699417
v 1.947600 1.119442 -0.699417
v 1.942668 1.124498 -0.698700
v 1.938241 1.119442 -0.730899
v 1.933737 1.124498 -0.728803
v 1.922082 1.119442 -0.755565
v 1.918540 1.124498 -0.752024
v 1.897416 1.119440 -0.771724
v 1.895320 1.124498 -0.767220
v 1.865932 1.119440 -0.781083
v -1.546260 1.042561 1.200505
v 1.840413 1.042561 1.200505
v 1.949301 1.042561 1.091617
v 1.949301 1.042561 -0.673897
v -1.655148 1.042561 -0.673897
v -1.655148 1.042561 1.091617
v 1.840413 1.042561 -0.782785
v -1.546260 1.042561 -0.782785
v -1.571780 1.042561 1.198803
v 1.947600 1.042561 1.117137
v -1.653447 1.042561 -0.699417
v 1.865932 1.042561 -0.781083
v -1.653447 1.042561 1.117137
v -1.644088 1.042561 1.148619
v -1.627929 1.042561 1.173285
v -1.603262 1.042561 1.189444
v 1.865934 1.042561 1.198803
v 1.897416 1.042561 1.189444
v 1.922082 1.042561 1.173285
v 1.938241 1.042561 1.148619
v -1.571778 1.042561 -0.781083
v -1.603262 1.042561 -0.771724
v -1.627929 1.042561 -0.755565
v -1.644088 1.042561 -0.730899
v 1.947600 1.042561 -0.699417
v 1.938241 1.042561 -0.730899
v 1.922082 1.042561 -0.755565
v 1.897416 1.042561 -0.771724
v -1.493152 1.045942 0.929912
v 1.686725 1.045942 -0.519844
v -1.361202 0.841362 0.969180
v -1.361202 1.044092 0.962858
v -1.361202 1.044092 1.064201
v 1.655355 0.841361 -0.640161
v 1.655355 0.847682 -0.545138
vn -0.0000 -0.0171 0.9999
vn 0.9231 -0.0211 0.3841
vn 0.9999 -0.0170 -0.0018
vn 0.9231 -0.0211 -0.3841
vn -0.0000 -0.0171 -0.9999
vn -0.9231 -0.0211 -0.3841
vn -0.9999 -0.0170 0.0018
vn -0.9231 -0.0211 0.3841
vn -0.0000 -1.0000 -0.0000
vn -0.7070 -0.0220 0.7069
vn 0.9999 -0.0170 0.0018
vn 0.7070 -0.0220 0.7069
vn 0.7069 -0.0220 -0.7069
vn -0.9999 -0.0170 -0.0018
vn -0.7069 -0.0220 -0.7069
vn -0.0019 -0.0171 0.9999
vn -0.9999 -0.0170 -0.0000
vn -0.3840 -0.0212 -0.9231
vn -0.0019 -0.0171 -0.9999
vn 0.9231 -0.0211 -0.3840
vn 0.9999 -0.0170 0.0019
vn 0.9999 -0.0170 -0.0019
vn 0.7071 -0.0220 0.7068
vn 0.9231 -0.0211 0.3840
vn -0.3840 -0.0212 0.9231
vn -0.7069 -0.0220 0.7069
vn 0.7071 -0.0220 -0.7068
vn 0.9999 -0.0170 -0.0000
vn 0.3840 -0.0212 0.9231
vn 0.0018 -0.0171 0.9999
vn -0.9230 -0.0211 0.3842
vn -0.9999 -0.0170 -0.0019
vn -0.9999 -0.0170 0.0019
vn -0.7068 -0.0220 -0.7071
vn -0.9230 -0.0211 -0.3842
vn 0.7069 -0.0220 0.7069
vn -0.7068 -0.0220 0.7071
vn 0.3839 -0.0212 -0.9231
vn -0.0018 -0.0171 -0.9999
vn 0.0019 -0.0171 0.9999
vn 0.3839 -0.0212 0.9231
vn 0.7068 -0.0220 -0.7071
vn 0.0019 -0.0171 -0.9999
vn -0.0018 -0.0171 0.9999
vn 0.7068 -0.0220 0.7071
vn 1.0000 -0.0000 -0.0000
vn 0.9239 -0.3827 -0.0000
vn -0.9239 -0.3827 -0.0000
vn -1.0000 -0.0000 -0.0000
vn 0.7071 -0.7071 -0.0000
vn -0.7071 -0.7071 -0.0000
vn -0.0000 -0.3827 -0.9239
vn -0.0000 -0.0000 -1.0000
vn -0.0000 -0.3828 -0.9239
vn -0.0000 -0.0000 1.0000
vn -0.0000 -0.3827 0.9239
vn -0.0000 -0.3826 0.9239
vn -0.0000 -0.7071 0.7071
vn -0.0000 -0.7072 -0.7070
vn -0.0000 -0.3828 0.9238
vn -0.0000 -0.7071 -0.7071
vn -0.0000 -0.7072 0.7070
vn -0.0000 1.0000 -0.0000
vn 0.0308 0.3758 0.9262
vn 0.0237 0.7009 0.7129
vn -0.0238 0.7008 0.7129
vn 0.9262 0.3758 -0.0308
vn 0.7129 0.7009 -0.0237
vn 0.7129 0.7008 0.0238
vn -0.9262 0.3758 0.0308
vn -0.7129 0.7008 0.0237
vn -0.7129 0.7008 -0.0238
vn -0.0308 0.3758 -0.9262
vn -0.0237 0.7009 -0.7129
vn 0.0238 0.7008 -0.7129
vn -0.0308 0.3758 0.9262
vn -0.1271 0.7016 0.7012
vn 0.9262 0.3758 0.0308
vn 0.7012 0.7016 0.1271
vn -0.9262 0.3758 -0.0308
vn -0.7012 0.7016 -0.1271
vn 0.0308 0.3758 -0.9262
vn 0.1271 0.7016 -0.7012
vn -0.9145 0.3700 0.1637
vn -0.7012 0.7015 0.1273
vn -0.8439 0.3668 0.3915
vn -0.6474 0.7006 0.3001
vn -0.6586 0.3642 0.6585
vn -0.5024 0.7038 0.5023
vn -0.3915 0.3667 0.8439
vn -0.3001 0.7007 0.6473
vn -0.1636 0.3700 0.9145
vn 0.1637 0.3700 0.9145
vn 0.1273 0.7015 0.7012
vn 0.3915 0.3668 0.8439
vn 0.2999 0.7019 0.6461
vn 0.6568 0.3730 0.6553
vn 0.4936 0.7185 0.4900
vn 0.8431 0.3675 0.3925
vn 0.6459 0.7007 0.3029
vn 0.9145 0.3700 0.1636
vn -0.1637 0.3700 -0.9145
vn -0.1273 0.7015 -0.7012
vn -0.3915 0.3668 -0.8439
vn -0.3001 0.7006 -0.6474
vn -0.6585 0.3641 -0.6586
vn -0.5022 0.7038 -0.5025
vn -0.8439 0.3668 -0.3915
vn -0.6471 0.7009 -0.3000
vn -0.9145 0.3700 -0.1636
vn 0.9144 0.3701 -0.1637
vn 0.7011 0.7016 -0.1272
vn 0.8439 0.3669 -0.3915
vn 0.6473 0.7007 -0.3000
vn 0.6586 0.3642 -0.6585
vn 0.5024 0.7038 -0.5023
vn 0.3915 0.3667 -0.8439
vn 0.3001 0.7007 -0.6473
vn 0.1636 0.3700 -0.9145
vn -0.0333 -0.0000 0.9994
vn 0.0333 -0.0000 0.9994
vn 0.9994 -0.0000 0.0333
vn 0.9994 -0.0000 -0.0333
vn -0.9994 -0.0000 -0.0333
vn -0.9994 -0.0000 0.0333
vn 0.0333 -0.0000 -0.9994
vn -0.0333 -0.0000 -0.9994
vn -0.1768 -0.0000 0.9842
vn 0.9842 -0.0000 0.1768
vn -0.9842 -0.0000 -0.1768
vn 0.1768 -0.0000 -0.9842
vn -0.9842 -0.0000 0.1768
vn -0.9071 -0.0000 0.4209
vn -0.7071 -0.0000 0.7071
vn -0.4209 -0.0000 0.9071
vn 0.1768 -0.0000 0.9842
vn 0.4209 -0.0000 0.9071
vn 0.7071 -0.0000 0.7071
vn 0.9071 -0.0000 0.4209
vn -0.1768 -0.0000 -0.9842
vn -0.4209 -0.0000 -0.9071
vn -0.7071 -0.0000 -0.7071
vn -0.9071 -0.0000 -0.4209
vn 0.9842 -0.0000 -0.1768
vn 0.9071 -0.0000 -0.4209
vn 0.7071 -0.0000 -0.7071
vn 0.4209 -0.0000 -0.9071
vn -0.0000 -0.3828 0.9239
vt 0.865800 0.362500
vt 0.837900 0.648600
vt 0.833900 0.362500
vt 0.830400 0.363600
vt 0.802600 0.649800
vt 0.798200 0.363700
vt 0.795400 0.363600
vt 0.767600 0.649800
vt 0.763500 0.363600
vt 0.898700 0.362200
vt 0.870400 0.648300
vt 0.866500 0.362200
vt 0.861000 0.685400
vt 0.837100 0.685400
vt 0.861000 0.661400
vt 0.865300 0.362200
vt 0.826600 0.649800
vt 0.831500 0.363600
vt 0.797000 0.363700
vt 0.894500 0.648300
vt 0.899800 0.362200
vt 0.982200 0.990100
vt 0.949500 0.703800
vt 0.973500 0.703700
vt 0.940200 0.989800
vt 0.912300 0.703200
vt 0.935900 0.703200
vt 0.902600 0.991100
vt 0.879300 0.704300
vt 0.903200 0.704400
vt 0.865400 0.989600
vt 0.837400 0.703000
vt 0.863800 0.703000
vt 0.918700 0.661000
vt 0.943500 0.661000
vt 0.943500 0.686000
vt 0.836100 0.989600
vt 0.835900 0.989600
vt 0.950100 0.990500
vt 0.948900 0.990500
vt 0.903800 0.991000
vt 0.865100 0.989600
vt 0.940300 0.647500
vt 0.913500 0.372500
vt 0.936400 0.372500
vt 0.715800 0.640600
vt 0.692000 0.365300
vt 0.715100 0.365600
vt 0.987700 0.649200
vt 0.960900 0.374200
vt 0.983900 0.374200
vt 0.757400 0.643000
vt 0.732000 0.367800
vt 0.755200 0.368000
vt 0.744700 0.685100
vt 0.721800 0.685100
vt 0.721700 0.662000
vt 0.725300 0.642800
vt 0.726500 0.642900
vt 0.717000 0.640600
vt 0.988900 0.649200
vt 0.758600 0.643000
vt 0.689800 0.982000
vt 0.717700 0.696000
vt 0.719400 0.982000
vt 0.727200 0.988100
vt 0.755400 0.702200
vt 0.759400 0.988100
vt 0.765000 0.992100
vt 0.792900 0.706100
vt 0.794600 0.992100
vt 0.800500 0.993500
vt 0.828600 0.707500
vt 0.832700 0.993500
vt 0.803000 0.664800
vt 0.803000 0.688700
vt 0.779000 0.664800
vt 0.691500 0.696000
vt 0.766700 0.706100
vt 0.794700 0.992100
vt 0.700500 0.349900
vt 0.967300 0.314000
vt 0.967300 0.349900
vt 0.700500 0.305400
vt 0.967300 0.290400
vt 0.967300 0.305400
vt 0.699500 0.284100
vt 0.966300 0.248200
vt 0.966300 0.284100
vt 0.700500 0.314000
vt 0.967300 0.311600
vt 0.699500 0.286500
vt 0.966300 0.286500
vt 0.720600 0.011600
vt 0.987400 0.047500
vt 0.720600 0.047500
vt 0.721600 0.062500
vt 0.988300 0.077500
vt 0.721600 0.077500
vt 0.719200 0.091400
vt 0.986000 0.127200
vt 0.719200 0.127200
vt 0.987400 0.049900
vt 0.720600 0.049900
vt 0.719200 0.088900
vt 0.986000 0.091400
vt 0.562700 0.201300
vt 0.007600 0.217700
vt 0.007600 0.201300
vt 0.564000 0.052600
vt 0.008900 0.088700
vt 0.008900 0.052600
vt 0.006600 0.139700
vt 0.561700 0.175900
vt 0.006600 0.175900
vt 0.561700 0.177500
vt 0.006600 0.177500
vt 0.008900 0.050900
vt 0.561100 0.198300
vt 0.006000 0.182000
vt 0.561100 0.182000
vt 0.563400 0.045500
vt 0.008300 0.009300
vt 0.563400 0.009300
vt 0.007500 0.133700
vt 0.562700 0.097600
vt 0.562700 0.133700
vt 0.007500 0.097600
vt 0.562700 0.095900
vt 0.008300 0.047100
vt 0.563400 0.047100
vt 0.016900 0.633100
vt 0.019900 0.618700
vt 0.016300 0.952600
vt 0.655000 0.607300
vt 0.655000 0.608600
vt 0.029200 0.608500
vt 0.944400 0.170200
vt 0.944400 0.171600
vt 0.617500 0.170900
vt 0.942000 0.211300
vt 0.942000 0.212600
vt 0.614900 0.212000
vt 0.652900 0.991400
vt 0.652900 0.992700
vt 0.027000 0.992500
vt 0.029200 0.607100
vt 0.024500 0.608400
vt 0.617500 0.169600
vt 0.612700 0.170900
vt 0.614900 0.210700
vt 0.610200 0.212000
vt 0.027100 0.991200
vt 0.022300 0.992500
vt 0.946700 0.211300
vt 0.946700 0.212600
vt 0.952700 0.211400
vt 0.952700 0.212700
vt 0.958100 0.211500
vt 0.957900 0.212800
vt 0.018500 0.607200
vt 0.018500 0.608500
vt 0.013300 0.608600
vt 0.024500 0.607100
vt 0.659600 0.607300
vt 0.659700 0.608600
vt 0.665600 0.607400
vt 0.665600 0.608600
vt 0.671000 0.607500
vt 0.670800 0.608800
vt 0.606800 0.169600
vt 0.606800 0.170900
vt 0.601600 0.171100
vt 0.612800 0.169600
vt 0.657600 0.991400
vt 0.657600 0.992700
vt 0.663600 0.991400
vt 0.663600 0.992700
vt 0.669000 0.991500
vt 0.668800 0.992800
vt 0.604200 0.210700
vt 0.604300 0.212000
vt 0.599000 0.212100
vt 0.610200 0.210700
vt 0.949100 0.170200
vt 0.949100 0.171600
vt 0.955100 0.170300
vt 0.955100 0.171600
vt 0.960500 0.170400
vt 0.960300 0.171700
vt 0.016400 0.991200
vt 0.016400 0.992500
vt 0.011200 0.992700
vt 0.022400 0.991200
vt 0.029200 0.592900
vt 0.655000 0.593100
vt 0.617500 0.155400
vt 0.944500 0.156000
vt 0.614900 0.196400
vt 0.942100 0.197000
vt 0.027000 0.977000
vt 0.652900 0.977200
vt 0.024400 0.592900
vt 0.612700 0.155400
vt 0.610200 0.196400
vt 0.022300 0.977000
vt 0.946800 0.197100
vt 0.952900 0.197100
vt 0.958400 0.197200
vt 0.012900 0.593100
vt 0.018400 0.593000
vt 0.659700 0.593100
vt 0.665800 0.593200
vt 0.671300 0.593200
vt 0.601200 0.155500
vt 0.606600 0.155400
vt 0.657700 0.977200
vt 0.663800 0.977200
vt 0.669200 0.977300
vt 0.598600 0.196500
vt 0.604100 0.196500
vt 0.949200 0.156000
vt 0.955300 0.156100
vt 0.960800 0.156200
vt 0.010800 0.977100
vt 0.016200 0.977000
vt 0.030500 0.588300
vt 0.030500 0.222600
vt 0.655000 0.588300
vt 0.646200 0.614300
vt 0.650400 0.614600
vt 0.646000 0.971500
vt 0.662300 0.952700
vt 0.661900 0.962800
vt 0.659300 0.967100
vt 0.659700 0.618800
vt 0.662400 0.623100
vt 0.663000 0.633200
vt 0.655000 0.222600
vt 0.659700 0.222900
vt 0.675000 0.568200
vt 0.673000 0.578700
vt 0.670000 0.583300
vt 0.670000 0.227600
vt 0.673000 0.232200
vt 0.675000 0.242700
vt 0.582727 0.000076
vt 0.582727 0.999924
vt 0.000076 0.000076
vt 0.029000 0.614600
vt 0.033300 0.614300
vt 0.028900 0.971200
vt 0.023800 0.616200
vt 0.023600 0.969600
vt 0.019600 0.967000
vt 0.017400 0.623000
vt 0.016900 0.962700
vt 0.025800 0.588000
vt 0.015500 0.583300
vt 0.012500 0.578700
vt 0.010400 0.568200
vt 0.010400 0.242700
vt 0.012500 0.232200
vt 0.015500 0.227600
vt 0.650300 0.971200
vt 0.655700 0.616200
vt 0.655500 0.969600
vt 0.659700 0.588000
vt 0.665500 0.224600
vt 0.665500 0.586300
vt 0.025800 0.222900
vt 0.020000 0.586300
vt 0.020000 0.224600
vt 0.861700 0.648600
vt 0.791400 0.649800
vt 0.837200 0.661400
vt 0.907900 0.989800
vt 0.870600 0.990700
vt 0.918700 0.686000
vt 0.909600 0.647500
vt 0.684900 0.640300
vt 0.957100 0.649200
vt 0.744700 0.662000
vt 0.731300 0.702200
vt 0.804600 0.707500
vt 0.779000 0.688700
vt 0.700500 0.290400
vt 0.699500 0.248200
vt 0.700500 0.311600
vt 0.987400 0.011600
vt 0.988300 0.062500
vt 0.986000 0.088900
vt 0.562700 0.217700
vt 0.564000 0.088700
vt 0.561700 0.139700
vt 0.564000 0.050900
vt 0.006000 0.198300
vt 0.008300 0.045500
vt 0.007500 0.095900
vt 0.013100 0.607300
vt 0.601300 0.169700
vt 0.598800 0.210800
vt 0.011000 0.991300
vt 0.662400 0.957200
vt 0.663000 0.628700
vt 0.674700 0.572900
vt 0.674700 0.238000
vt 0.000076 0.999924
vt 0.033100 0.971600
vt 0.016900 0.628600
vt 0.016300 0.957100
vt 0.010700 0.572900
vt 0.010800 0.238000
s 1
usemtl Wood
f 1/1/1 2/2/1 3/3/1
f 4/4/2 5/5/3 6/6/4
f 7/7/5 8/8/5 9/9/5
f 10/10/6 11/11/7 12/12/8
f 8/13/9 5/14/9 11/15/9
f 1/16/10 12/12/8 11/11/7
f 2/17/11 4/4/2 3/18/12
f 5/5/3 7/19/13 6/6/4
f 8/20/14 10/10/6 9/21/15
f 13/22/1 14/23/16 15/24/1
f 16/25/17 17/26/17 14/27/17
f 18/28/18 19/29/5 17/30/19
f 20/31/20 15/32/21 19/33/22
f 15/34/9 14/35/9 17/36/9
f 13/37/23 15/32/21 21/38/24
f 22/39/25 16/40/26 14/23/16
f 23/41/15 18/28/18 17/30/19
f 24/42/27 20/31/20 19/33/22
f 25/43/5 26/44/5 27/45/5
f 28/46/4 29/47/28 26/48/3
f 30/49/29 31/50/1 29/51/30
f 32/52/31 27/53/32 31/54/33
f 27/55/9 26/56/9 29/57/9
f 25/58/34 27/53/32 33/59/35
f 34/60/13 28/46/4 26/48/3
f 35/61/36 30/49/29 29/51/30
f 36/62/37 32/52/31 31/54/33
f 37/63/38 38/64/39 39/65/18
f 40/66/17 41/67/17 42/68/17
f 43/69/25 44/70/40 45/71/41
f 46/72/28 47/73/28 48/74/28
f 44/75/9 41/76/9 47/77/9
f 37/63/38 48/63/42 47/78/43
f 38/64/39 40/65/15 39/65/18
f 41/79/44 43/69/25 42/69/26
f 44/70/40 46/80/45 45/71/41
f 49/81/46 50/82/47 51/83/46
f 52/84/9 53/85/9 54/86/9
f 55/87/48 56/88/49 57/89/48
f 58/90/47 54/91/50 50/82/47
f 59/92/51 57/89/48 53/93/51
f 60/94/49 61/95/48 62/96/48
f 63/97/9 64/98/9 65/99/9
f 66/100/47 67/101/46 68/102/46
f 62/96/48 69/103/51 63/104/51
f 65/105/50 70/106/47 66/100/47
f 71/107/9 72/108/9 73/109/9
f 74/110/52 75/111/53 76/112/54
f 77/113/55 78/114/56 79/115/57
f 79/115/56 71/116/58 73/117/58
f 72/118/59 74/110/52 76/112/54
f 80/119/9 81/120/9 82/121/9
f 83/122/60 84/123/55 85/124/55
f 86/125/53 87/126/52 88/127/53
f 89/128/52 80/129/61 87/126/52
f 81/130/62 83/122/60 82/131/62
f 90/132/63 91/133/63 92/134/63
f 93/135/64 94/136/65 95/137/66
f 96/138/67 97/139/68 98/140/69
f 99/141/70 90/142/71 92/143/72
f 100/144/73 101/145/74 102/146/75
f 103/147/76 95/137/66 104/148/77
f 105/149/78 98/140/69 106/150/79
f 107/151/80 92/143/72 108/152/81
f 109/153/82 102/146/75 110/154/83
f 111/155/84 112/156/85 90/142/71
f 113/157/86 114/158/87 112/156/85
f 115/159/88 91/160/89 114/158/87
f 116/161/90 117/162/91 91/163/89
f 118/164/92 104/148/77 117/162/91
f 119/165/93 120/166/94 94/136/65
f 121/167/95 122/168/96 120/166/94
f 123/169/97 124/170/98 122/168/96
f 125/171/99 126/172/100 124/173/98
f 127/174/101 106/150/79 126/172/100
f 128/175/102 129/176/103 101/145/74
f 130/177/104 131/178/105 129/176/103
f 132/179/106 133/180/107 131/178/105
f 134/181/108 135/182/109 133/183/107
f 136/184/110 108/152/81 135/182/109
f 137/185/111 138/186/112 97/139/68
f 139/187/113 140/188/114 138/186/112
f 141/189/115 142/190/116 140/188/114
f 143/191/117 144/192/118 142/193/116
f 145/194/119 110/154/83 144/192/118
f 93/135/64 146/195/120 147/196/121
f 96/138/67 148/197/122 149/198/123
f 99/141/70 150/199/124 151/200/125
f 100/144/73 152/201/126 153/202/127
f 103/147/76 154/203/128 146/195/120
f 105/149/78 155/204/129 148/197/122
f 107/151/80 156/205/130 150/199/124
f 109/153/82 157/206/131 152/201/126
f 111/155/84 151/200/125 158/207/132
f 113/157/86 158/207/132 159/208/133
f 115/159/88 159/208/133 160/209/134
f 116/161/90 160/210/134 161/211/135
f 118/164/92 161/211/135 154/203/128
f 119/165/93 147/196/121 162/212/136
f 121/167/95 162/212/136 163/213/137
f 123/169/97 163/213/137 164/214/138
f 125/171/99 164/215/138 165/216/139
f 127/174/101 165/216/139 155/204/129
f 128/175/102 153/202/127 166/217/140
f 130/177/104 166/217/140 167/218/141
f 132/179/106 167/218/141 168/219/142
f 134/181/108 168/220/142 169/221/143
f 136/184/110 169/221/143 156/205/130
f 137/185/111 149/198/123 170/222/144
f 139/187/113 170/222/144 171/223/145
f 141/189/115 171/223/145 172/224/146
f 143/191/117 172/225/146 173/226/147
f 145/194/119 173/226/147 157/206/131
f 146/227/9 153/228/9 147/229/9
f 94/230/63 120/231/63 102/232/63
f 97/233/63 140/234/63 142/235/63
f 124/236/63 126/237/63 98/238/63
f 152/239/9 157/240/9 147/229/9
f 148/241/9 165/242/9 164/243/9
f 172/244/9 171/245/9 149/246/9
f 95/247/63 94/248/63 101/249/63
f 104/250/63 95/251/63 129/252/63
f 117/253/63 104/250/63 131/254/63
f 91/133/63 117/253/63 133/255/63
f 90/132/63 114/256/63 91/133/63
f 133/255/63 135/257/63 92/134/63
f 146/227/9 154/258/9 153/228/9
f 160/259/9 159/260/9 151/261/9
f 150/262/9 169/263/9 168/264/9
f 120/231/63 110/265/63 102/232/63
f 122/266/63 144/267/63 110/265/63
f 124/236/63 142/235/63 144/267/63
f 98/238/63 97/233/63 142/235/63
f 157/240/9 162/268/9 147/229/9
f 173/269/9 163/270/9 162/268/9
f 172/244/9 164/243/9 163/270/9
f 149/246/9 148/241/9 164/243/9
f 154/258/9 166/271/9 153/228/9
f 161/272/9 167/273/9 166/271/9
f 160/259/9 168/264/9 167/273/9
f 151/261/9 150/262/9 168/264/9
f 1/1/1 11/274/1 2/2/1
f 4/4/2 2/17/11 5/5/3
f 7/7/5 5/275/5 8/8/5
f 10/10/6 8/20/14 11/11/7
f 5/14/9 2/276/9 11/15/9
f 13/22/1 22/39/25 14/23/16
f 16/25/17 23/277/17 17/26/17
f 18/28/18 24/278/5 19/29/5
f 20/31/20 21/38/24 15/32/21
f 17/36/9 19/279/9 15/34/9
f 25/43/5 34/280/5 26/44/5
f 28/46/4 35/281/28 29/47/28
f 30/49/29 36/282/1 31/50/1
f 32/52/31 33/59/35 27/53/32
f 29/57/9 31/283/9 27/55/9
f 37/63/38 47/78/43 38/64/39
f 40/66/17 38/284/17 41/67/17
f 43/69/25 41/79/44 44/70/40
f 46/72/28 44/285/28 47/73/28
f 41/76/9 38/286/9 47/77/9
f 49/81/46 58/90/47 50/82/47
f 52/84/9 59/287/9 53/85/9
f 55/87/48 174/288/49 56/88/49
f 58/90/47 52/289/50 54/91/50
f 59/92/51 55/87/48 57/89/48
f 60/94/49 175/290/49 61/95/48
f 63/97/9 69/291/9 64/98/9
f 66/100/47 70/106/47 67/101/46
f 62/96/48 61/95/48 69/103/51
f 65/105/50 64/292/50 70/106/47
f 71/107/9 176/293/9 72/108/9
f 74/110/52 177/294/53 75/111/53
f 77/113/55 178/295/55 78/114/56
f 79/115/57 78/114/56 71/116/58
f 72/118/59 176/296/59 74/110/52
f 80/119/9 179/297/9 81/120/9
f 83/122/60 180/298/148 84/123/55
f 86/125/53 89/128/52 87/126/52
f 89/128/52 179/299/61 80/129/61
f 81/130/62 180/298/148 83/122/60
f 91/133/63 133/255/63 92/134/63
f 95/137/66 103/147/76 93/135/64
f 98/140/69 105/149/78 96/138/67
f 92/143/72 107/151/80 99/141/70
f 102/146/75 109/153/82 100/144/73
f 104/148/77 118/164/92 103/147/76
f 106/150/79 127/174/101 105/149/78
f 108/152/81 136/184/110 107/151/80
f 110/154/83 145/194/119 109/153/82
f 90/142/71 99/141/70 111/155/84
f 112/156/85 111/155/84 113/157/86
f 114/158/87 113/157/86 115/159/88
f 91/163/89 115/300/88 116/161/90
f 117/162/91 116/161/90 118/164/92
f 94/136/65 93/135/64 119/165/93
f 120/166/94 119/165/93 121/167/95
f 122/168/96 121/167/95 123/169/97
f 124/173/98 123/301/97 125/171/99
f 126/172/100 125/171/99 127/174/101
f 101/145/74 100/144/73 128/175/102
f 129/176/103 128/175/102 130/177/104
f 131/178/105 130/177/104 132/179/106
f 133/183/107 132/302/106 134/181/108
f 135/182/109 134/181/108 136/184/110
f 97/139/68 96/138/67 137/185/111
f 138/186/112 137/185/111 139/187/113
f 140/188/114 139/187/113 141/189/115
f 142/193/116 141/303/115 143/191/117
f 144/192/118 143/191/117 145/194/119
f 93/135/64 103/147/76 146/195/120
f 96/138/67 105/149/78 148/197/122
f 99/141/70 107/151/80 150/199/124
f 100/144/73 109/153/82 152/201/126
f 103/147/76 118/164/92 154/203/128
f 105/149/78 127/174/101 155/204/129
f 107/151/80 136/184/110 156/205/130
f 109/153/82 145/194/119 157/206/131
f 111/155/84 99/141/70 151/200/125
f 113/157/86 111/155/84 158/207/132
f 115/159/88 113/157/86 159/208/133
f 116/161/90 115/300/88 160/210/134
f 118/164/92 116/161/90 161/211/135
f 119/165/93 93/135/64 147/196/121
f 121/167/95 119/165/93 162/212/136
f 123/169/97 121/167/95 163/213/137
f 125/171/99 123/301/97 164/215/138
f 127/174/101 125/171/99 165/216/139
f 128/175/102 100/144/73 153/202/127
f 130/177/104 128/175/102 166/217/140
f 132/179/106 130/177/104 167/218/141
f 134/181/108 132/302/106 168/220/142
f 136/184/110 134/181/108 169/221/143
f 137/185/111 96/138/67 149/198/123
f 139/187/113 137/185/111 170/222/144
f 141/189/115 139/187/113 171/223/145
f 143/191/117 141/303/115 172/225/146
f 145/194/119 143/191/117 173/226/147
f 153/228/9 152/239/9 147/229/9
f 97/233/63 138/304/63 140/234/63
f 126/237/63 106/305/63 98/238/63
f 148/241/9 155/306/9 165/242/9
f 171/245/9 170/307/9 149/246/9
f 94/248/63 102/308/63 101/249/63
f 95/251/63 101/309/63 129/252/63
f 104/250/63 129/252/63 131/254/63
f 117/253/63 131/254/63 133/255/63
f 90/132/63 112/310/63 114/256/63
f 135/257/63 108/311/63 92/134/63
f 159/260/9 158/312/9 151/261/9
f 150/262/9 156/313/9 169/263/9
f 120/231/63 122/266/63 110/265/63
f 122/266/63 124/236/63 144/267/63
f 124/236/63 98/238/63 142/235/63
f 157/240/9 173/269/9 162/268/9
f 173/269/9 172/244/9 163/270/9
f 172/244/9 149/246/9 164/243/9
f 154/258/9 161/272/9 166/271/9
f 161/272/9 160/259/9 167/273/9
f 160/259/9 151/261/9 168/264/9
